# xmcd
#
# Track frame offsets:
#  150
#  19688
#  39968
#  53620
#  64670
#  78418
#  100790
#  113203
#  123293
#  135373
#  158113
#  172018
#  189215
#  204260
#  224160
#  239000
#  249635
#  268405
#
# Disc length: 3774 seconds
#
# Revision: 6
# Processed by: cddbd v1.5.1PL2 Copyright (c) Steve Scherf et al.
# Submitted via: Collectorz.com_Music_Collector 6.10
#
DISCID=f90ebc12
DTITLE=The Hollywood Film Festival Ochestra - The Wonderfull World of Musical [CD1)
DYEAR=2002
DGENRE=Classical
TTITLE0=Phantom Of The Opera - Phantom Of The Opera
TTITLE1=Phantom Of The Opera - The Music Of The Night
TTITLE2=Phantom Of The Opera - All I Ask Of You
TTITLE3=Phantom Of The Opera - Angel Of Music
TTITLE4=Phantom Of The Opera - Whishing You Were Somehow Here Again
TTITLE5=Roberta - Smoke Gets In Your Eyes
TTITLE6=West Side Story - Tonight
TTITLE7=West Side Story - I Feel Pretty
TTITLE8=Fiddler On The Roof - If I Were A Rich Man
TTITLE9=Fiddler On The Roof - Sunrise Sunset
TTITLE10=Starlight Express - Starlight Express
TTITLE11=Starlight Express - Pumping Iron
TTITLE12=Starlight Express- Only you
TTITLE13=Starlight Express - Rolling Rock
TTITLE14=Starlight Express - The Race
TTITLE15=Odessa - The Odessa Anthem
TTITLE16=A Little Night Music - Send In The Clowns
TTITLE17=The Sound Of Music - The Sound Of Music
EXTD=
EXTT0=
EXTT1=
EXTT2=
EXTT3=
EXTT4=
EXTT5=
EXTT6=
EXTT7=
EXTT8=
EXTT9=
EXTT10=
EXTT11=
EXTT12=
EXTT13=
EXTT14=
EXTT15=
EXTT16=
EXTT17=
PLAYORDER=
